<svg width="1024" height="1024" xmlns="http://www.w3.org/2000/svg">
	<g>
		<circle fill="#fff" r="512" cy="512" cx="512" />
		<path d="m517,152q7,3 11,9q3,7 -1,14q-3,6 -9,9l-1,140l6,0q3,3 2,8l0,15l15,0l0,-19l2,-4l6,0l0,-70l-5,-2q-6,-5 -6,-11q0,-7 2,-12q6,-7 14,-9q8,2 14,8q5,6 3,13q-3,9 -10,13l-2,0l0,70l5,0l2,4l0,19l16,0l0,-19l2,-4l5,-1l1,-108l-5,-1q-6,-5 -7,-12q-2,-8 4,-14q6,-5 14,-5q8,1 12,7q5,8 3,14q-3,7 -9,11l-3,0l0,109l7,0q3,3 2,8l0,15l15,0l0,-19l2,-4l6,0l0,-2l-2,-35c-2,-27 -2,-27 6,-35l11,-10c6,-5 6,-5 9,-12l-1,-7q0,-5 3,-8q6,-5 14,-4q7,1 11,7q5,8 2,14q-3,7 -10,9l-7,1q-9,0 -17,8q-12,12 -11,30l0,23l1,21l3,0q3,0 5,2l0,22l2,0c21,-1 21,-1 29,4l3,2q8,7 8,19l0,4l18,0l4,1l1,7l36,1c21,1 21,1 38,-9c8,-7 8,-7 11,-16l0,-7l2,-7l4,-4q8,-4 15,-2q7,3 10,10q2,7 -2,13c-4,6 -4,6 -8,7l-13,0l-9,10q-9,13 -23,16l-26,0l-12,-1l-23,1q1,3 -2,5l-21,0l0,16l18,0l4,1l1,7l112,0l2,-5q4,-6 11,-7q9,-1 14,3q6,6 7,14q-1,7 -8,13c-7,6 -10,4 -16,3q-6,-3 -10,-10l0,-2l-112,0l0,6l-4,2l-19,0l0,16l19,0l4,2l0,5l70,0l5,-1l4,-6q6,-4 13,-6q7,2 12,6q5,6 4,13q-1,9 -8,14q-6,4 -13,2q-6,-2 -10,-8q-2,-3 -5,-4l-46,0l-26,2q1,3 -2,5l-21,0l0,16l18,0l4,1l1,7l144,0l2,-6q4,-5 10,-7q8,0 15,5q6,6 5,15q0,7 -5,11q-6,5 -15,4q-7,-2 -11,-8l-1,-4l-144,0l0,5l-4,2l-19,0l0,16l21,0c2,3 2,3 2,8l76,0l1,-5l5,-5q8,-4 15,-2q6,3 10,9q3,8 -1,15q-3,7 -10,9q-8,2 -17,-3l-4,-8l-75,-1l0,5l-3,3l-20,0l0,15l18,0l4,1l1,7l112,0l2,-5l4,-3l1,-2q6,-3 12,-2q8,2 12,9l1,2q2,6 0,13q-4,6 -10,9q-7,3 -14,-1q-5,-3 -8,-9l-112,-1l-1,6l-3,1l-19,0l0,16l21,0q3,3 2,8l2,0l36,-2c28,-2 28,-2 36,6l10,11c5,6 5,6 12,9l7,-1q4,0 7,2q7,6 6,13q0,9 -6,14q-7,4 -16,2q-5,-3 -9,-9l0,-7c0,-6 0,-6 -3,-11l-3,-2l-3,-3l-8,-9l-1,-2q-4,-2 -8,-1l-4,0l-20,-1l-35,0l0,3l-2,5l-21,0l0,4q0,12 -9,20c-9,8 -22,6 -33,6l0,20l-1,3l-7,0l-1,35c-1,13 -1,26 9,37c7,8 7,8 17,11l7,0q5,0 8,3q6,6 5,14q0,7 -7,11q-6,5 -15,3q-6,-3 -9,-10l0,-3c1,-7 1,-7 -2,-14l-8,-6q-12,-8 -15,-22l0,-25l1,-11l1,-23l-3,0q-3,1 -5,-2l0,-21l-16,0l0,20l-2,4l-6,0l0,101l1,7l7,4q6,6 4,14q-1,8 -8,13q-6,4 -14,2q-6,-3 -10,-9q-4,-8 0,-16l8,-8l3,0l0,-109l-6,0l-2,-4l0,-19l-16,0l0,20l-2,4l-5,0l0,70l5,2q7,4 7,11q1,8 -4,13q-6,7 -15,6t-13,-8q-3,-9 1,-19q2,-3 6,-5l3,0l0,-70l-5,0l-3,-3l0,-21l-16,0l0,20l-2,4l-5,0l0,140l6,2q6,4 5,10q3,9 -4,16q-6,6 -15,4q-8,0 -11,-7c-3,-7 -3,-4 -3,-7l0,-3q1,-7 6,-13l6,-2l0,-140l-5,0l-3,-3l0,-21l-16,0l0,20l-2,4l-5,0l0,70l6,2q6,6 7,13q-2,9 -9,15q-7,4 -14,2q-7,-3 -11,-10q-3,-5 -1,-11q3,-7 9,-11l3,0l0,-70l-5,0l-2,-4l0,-20l-16,0l0,19l-1,4l-7,1l1,108l6,3q6,7 5,16q-1,7 -6,11q-6,5 -14,3q-8,-3 -12,-10q-3,-8 0,-14q4,-7 9,-9l2,0l0,-109l-7,0l-1,-3l0,-20l-16,0l0,19l-1,4l-7,1l0,2l2,34c2,27 2,27 -6,35l-11,10c-6,5 -6,5 -9,12l1,7q0,5 -3,8q-6,6 -15,5q-5,0 -9,-4q-5,-6 -4,-14c1,-8 3,-9 7,-12l9,-1q9,1 15,-5c10,-10 14,-18 14,-33l0,-23l-1,-21l-3,0l-4,-2l0,-22l-13,0q-13,1 -22,-8q-8,-10 -7,-22l-19,0l-4,-2l0,-6l-36,-1c-21,-1 -21,-1 -38,9c-8,8 -8,8 -12,18l1,7l-1,5q-4,7 -12,7c-9,1 -9,1 -13,-3q-7,-6 -5,-15q1,-8 7,-12q6,-2 13,0q7,-3 13,-10l1,-2q6,-9 17,-13l41,0l24,1l0,-3q0,-3 2,-5l21,0l0,-16l-19,0l-4,-2l0,-5l-104,0l-8,1l-4,6q-7,6 -15,5q-7,0 -11,-7t-3,-15q5,-7 12,-12q8,-1 15,3l6,7l0,2l112,0l1,-7l6,-1l15,0l0,-15l-20,0q-2,-3 -2,-8l-70,0l-5,1l-4,6q-7,6 -15,5q-7,0 -12,-7q-4,-7 -2,-15q3,-8 11,-11q8,-2 14,2l7,7l0,3l76,0l0,-6l4,-2l19,0l0,-16l-19,0l-4,-2l0,-5l-141,0l-5,3l-1,3q-6,6 -16,5q-7,-1 -11,-6q-4,-9 -2,-16q3,-7 11,-11q9,-2 16,4q4,2 5,6l0,2l144,0l0,-6l4,-2l18,0l0,-15l-17,0l-4,-1l-1,-7l-76,0l-1,4q-4,6 -11,8q-5,1 -11,-2q-7,-4 -9,-13c-2,-9 1,-10 5,-15q6,-5 13,-4q9,1 12,7l3,4l75,1l0,-5l4,-2l18,0l0,-16l-18,0l-4,-2l0,-6l-112,1l-3,6q-6,6 -16,5q-5,0 -9,-4q-5,-7 -5,-15q1,-7 8,-12q8,-4 16,-1q6,3 9,9l0,2l112,0l0,-6l4,-2l18,0l0,-16l-18,0l-4,-2l0,-5l-38,2c-27,2 -27,2 -37,-6q-9,-7 -16,-18l-2,-2l-5,1q-7,1 -12,-3q-7,-5 -6,-10q-2,-8 4,-14l2,-2q8,-4 15,-2q7,3 10,10l0,6q0,11 8,18q13,12 30,11l25,0l22,-1l0,-3l1,-4l7,-1l15,0l0,-4q0,-10 7,-18q10,-9 24,-7l11,0l0,-20l2,-4l6,0l1,-34c1,-19 1,-19 -8,-36q-6,-8 -15,-13l-4,1q-9,1 -16,-5q-4,-6 -3,-13q2,-9 8,-12q7,-3 13,-1q6,3 10,9l0,7l2,10l3,3l4,3l12,12q3,2 2,5l0,64l3,0q3,0 5,2l0,21l16,0l0,-19l2,-4l5,-1l1,-108l-5,-1l-5,-5q-4,-7 -2,-14q3,-8 11,-12q9,-2 16,3q6,5 6,13t-4,12l-7,5l-1,108l6,0l2,4l0,19l15,0l0,-13c0,-6 0,-6 2,-10l6,-1l0,-69l-5,-2q-7,-5 -7,-14q0,-7 6,-13q5,-5 12,-4q10,1 15,10q3,7 -1,14q-3,6 -7,8l-3,0l0,71l6,0q3,3 2,8l0,15l15,0l0,-19l2,-4l6,0l0,-140l-5,-2q-7,-6 -7,-16q1,-8 8,-13q7,-4 14,-1" fill="#109ad8" />
		<path d="m545,488zm-320,58l4,6q-1,6 -6,8l-5,0l-5,-5q-1,-5 3,-9l9,0zm372,271l4,4q1,5 -3,9l-8,1l-4,-4q-1,-5 2,-8q4,-4 9,-2m-163,0l4,4q1,5 -2,9q-4,2 -9,1q-4,-2 -4,-8q2,-8 11,-6m-247,-231l4,4q1,5 -2,8q-4,4 -9,2l-3,-3q-2,-6 1,-10q5,-2 9,-1m688,-81l4,4q1,5 -3,9l-9,0q-3,-2 -3,-6c0,-4 0,-3 2,-5q4,-4 9,-2m-278,-312l4,4q1,5 -3,9l-9,0l-3,-4l1,-7l10,-2zm-84,655l5,2q2,5 1,9q-2,4 -5,4q-4,1 -8,-2q-2,-4 -1,-9q2,-5 8,-4m293,-303l4,4l0,7q-2,4 -5,4q-5,1 -8,-3q-2,-4 -1,-8q4,-5 10,-4m35,-122q5,1 6,4l0,6q-2,5 -8,6q-4,-1 -6,-5q-2,-5 2,-9q2,-2 6,-2m-407,-230l4,4q1,5 -3,9l-9,0q-3,-2 -3,-6c0,-4 0,-3 2,-5q4,-4 9,-2m409,393l4,4q1,5 -2,8t-8,2l-4,-4l0,-7q4,-4 10,-3m-687,-81l3,3q2,5 -2,9q-3,3 -8,2l-4,-4q-1,-4 1,-9q4,-3 10,-1m29,-82l5,3l0,9q-2,3 -6,3c-4,0 -3,0 -5,-2q-4,-4 -2,-9q3,-4 8,-4m330,-262l4,4q1,5 -2,8t-8,2l-4,-4q-1,-5 2,-8t8,-2m-41,617l4,4q1,5 -2,8q-4,4 -9,2l-3,-3q-2,-5 2,-9q3,-3 8,-2m80,0q5,1 6,4l-1,8q-4,4 -8,2l-4,-1q-2,-4 -1,-9q2,-5 8,-4m-80,-547l4,4q1,5 -2,8t-8,2l-4,-4q-1,-5 2,-8t8,-2m332,233l4,3q2,5 -2,9q-3,3 -8,2l-4,-4q-1,-5 2,-8t8,-2m-583,0l5,4q1,5 -3,9l-9,0q-2,-1 -2,-6l1,-6q4,-2 8,-1m333,-233l4,4q1,5 -2,8t-8,2l-4,-4q-1,-5 2,-8t8,-2m-344,430q5,1 6,4l0,5q-2,4 -6,5q-5,-1 -7,-5l0,-5q2,-4 7,-4m148,131q3,3 2,7q0,3 -4,5c-5,0 -5,0 -8,-3l0,-7q4,-5 10,-2m-3,-572l5,3q1,4 -1,8q-4,2 -8,1l-3,-3l1,-7l6,-2zm315,572q3,3 2,8l-3,3q-4,1 -8,-1q-2,-4 -1,-8q4,-5 10,-2m141,-131l5,3l0,7q-2,3 -5,2l-6,-1l-1,-7q2,-4 7,-4m-143,-441q4,2 4,7l-1,4q-4,2 -8,1l-3,-3q-1,-4 1,-8l7,-1zm143,130l5,3q1,4 -1,8q-4,2 -8,1l-3,-4l1,-6l6,-2zm-599,0l3,3l0,7q-4,3 -9,2q-2,-2 -2,-5l1,-6l7,-1z" fill="#fff" />
		<rect rx="10" fill="#fff" y="370" x="360" height="280" width="300" />
		<text x="512" y="542" text-anchor="middle" font-weight="bold" font-size="90" font-family="sans-serif" alignment-baseline="central" fill="#109ad8">
			RGPU
		</text>
	</g>
</svg>
